<svg id="Group_7752" data-name="Group 7752" xmlns="http://www.w3.org/2000/svg" xmlns:xlink="http://www.w3.org/1999/xlink" width="22.871" height="18.001" viewBox="0 0 22.871 18.001">
  <defs>
    <clipPath id="clip-path">
      <rect id="Rectangle_3361" data-name="Rectangle 3361" width="22.871" height="18.001" fill="#fff"/>
    </clipPath>
  </defs>
  <g id="Group_7751" data-name="Group 7751" clip-path="url(#clip-path)">
    <path id="Path_5832" data-name="Path 5832" d="M11.818,18c-1.76,0-3.52.007-5.28,0A6.538,6.538,0,0,1,4.147,5.377a.49.49,0,0,0,.325-.342,7.336,7.336,0,0,1,14.167.911,1.83,1.83,0,0,1,.076.451c-.02.316.143.42.417.519A5.714,5.714,0,0,1,18.162,17.9a6.842,6.842,0,0,1-1.115.095c-1.743.01-3.486,0-5.229,0M9.8,9.82v.31c0,.962,0,1.924,0,2.886a2.032,2.032,0,0,0,.082.577,1.626,1.626,0,0,0,3.177-.472c.011-1,0-2.009,0-3.014V9.82c.532,0,1.032,0,1.532,0a.833.833,0,0,0,.846-.494.817.817,0,0,0-.236-.97q-1.567-1.573-3.137-3.142a.816.816,0,0,0-1.274,0Q9.227,6.782,7.661,8.355a.815.815,0,0,0-.239.969.832.832,0,0,0,.844.5c.5-.006,1,0,1.535,0" transform="translate(-0.001 0)" fill="#fff"/>
  </g>
</svg>
